<svg width="65" height="65" viewBox="0 0 65 65" fill="none" xmlns="http://www.w3.org/2000/svg">
<path d="M12.1875 56.875C12.1875 56.875 8.125 56.875 8.125 52.8125C8.125 48.75 12.1875 36.5625 32.5 36.5625C52.8125 36.5625 56.875 48.75 56.875 52.8125C56.875 56.875 52.8125 56.875 52.8125 56.875H12.1875ZM32.5 32.5C35.7323 32.5 38.8323 31.216 41.1179 28.9304C43.4035 26.6448 44.6875 23.5448 44.6875 20.3125C44.6875 17.0802 43.4035 13.9802 41.1179 11.6946C38.8323 9.40904 35.7323 8.125 32.5 8.125C29.2677 8.125 26.1677 9.40904 23.8821 11.6946C21.5965 13.9802 20.3125 17.0802 20.3125 20.3125C20.3125 23.5448 21.5965 26.6448 23.8821 28.9304C26.1677 31.216 29.2677 32.5 32.5 32.5Z" fill="#B06660"/>
</svg>
