<svg width="25" height="25" viewBox="0 0 25 25" fill="none" xmlns="http://www.w3.org/2000/svg">
<path fill-rule="evenodd" clip-rule="evenodd" d="M19.6367 6.71967C19.7258 6.6307 19.7965 6.52506 19.8447 6.40877C19.893 6.29248 19.9178 6.16783 19.9179 6.04193C19.918 5.91603 19.8933 5.79134 19.8452 5.675C19.7971 5.55865 19.7265 5.45292 19.6375 5.36384C19.5486 5.27476 19.4429 5.20408 19.3266 5.15582C19.2103 5.10757 19.0857 5.0827 18.9598 5.08262C18.8339 5.08254 18.7092 5.10726 18.5929 5.15537C18.4765 5.20348 18.3708 5.27404 18.2817 5.36301L12.5 11.1447L6.72004 5.36301C6.54013 5.1831 6.29613 5.08203 6.04171 5.08203C5.78728 5.08203 5.54328 5.1831 5.36337 5.36301C5.18347 5.54291 5.0824 5.78692 5.0824 6.04134C5.0824 6.29576 5.18347 6.53977 5.36337 6.71967L11.145 12.4997L5.36337 18.2797C5.27429 18.3688 5.20363 18.4745 5.15542 18.5909C5.10721 18.7073 5.0824 18.832 5.0824 18.958C5.0824 19.084 5.10721 19.2087 5.15542 19.3251C5.20363 19.4415 5.27429 19.5473 5.36337 19.6363C5.54328 19.8162 5.78728 19.9173 6.04171 19.9173C6.16768 19.9173 6.29243 19.8925 6.40882 19.8443C6.52521 19.7961 6.63096 19.7254 6.72004 19.6363L12.5 13.8547L18.2817 19.6363C18.4616 19.816 18.7055 19.9169 18.9598 19.9167C19.2141 19.9166 19.4579 19.8154 19.6375 19.6355C19.8172 19.4556 19.9181 19.2117 19.9179 18.9574C19.9178 18.7031 19.8166 18.4594 19.6367 18.2797L13.855 12.4997L19.6367 6.71967Z" fill="#58181F"/>
</svg>
