<svg width="28" height="28" viewBox="0 0 28 28" fill="none" xmlns="http://www.w3.org/2000/svg">
<path d="M14.0002 2.3335C20.4437 2.3335 25.6668 7.55666 25.6668 14.0002C25.6668 20.4437 20.4437 25.6668 14.0002 25.6668C7.55666 25.6668 2.3335 20.4437 2.3335 14.0002C2.3335 7.55666 7.55666 2.3335 14.0002 2.3335ZM14.0002 18.6668C13.6907 18.6668 13.394 18.7897 13.1752 19.0085C12.9564 19.2273 12.8335 19.5241 12.8335 19.8335C12.8335 20.1429 12.9564 20.4397 13.1752 20.6585C13.394 20.8772 13.6907 21.0002 14.0002 21.0002C14.3096 21.0002 14.6063 20.8772 14.8251 20.6585C15.0439 20.4397 15.1668 20.1429 15.1668 19.8335C15.1668 19.5241 15.0439 19.2273 14.8251 19.0085C14.6063 18.7897 14.3096 18.6668 14.0002 18.6668ZM14.0002 7.5835C12.8785 7.5835 11.8028 8.02907 11.0097 8.82219C10.2166 9.61531 9.771 10.691 9.771 11.8127C9.771 12.1221 9.89391 12.4188 10.1127 12.6376C10.3315 12.8564 10.6282 12.9793 10.9377 12.9793C11.2471 12.9793 11.5438 12.8564 11.7626 12.6376C11.9814 12.4188 12.1043 12.1221 12.1043 11.8127C12.1047 11.4685 12.1988 11.131 12.3764 10.8363C12.554 10.5415 12.8085 10.3007 13.1126 10.1396C13.4166 9.97846 13.7588 9.90315 14.1025 9.92172C14.4461 9.94029 14.7782 10.052 15.0631 10.245C15.3481 10.4379 15.5751 10.7048 15.7199 11.017C15.8648 11.3291 15.9219 11.6748 15.8852 12.017C15.8485 12.3592 15.7193 12.6849 15.5116 12.9592C15.3039 13.2336 15.0254 13.4462 14.706 13.5743C13.9173 13.8893 12.8335 14.6967 12.8335 16.0418V16.3335C12.8335 16.6429 12.9564 16.9397 13.1752 17.1585C13.394 17.3772 13.6907 17.5002 14.0002 17.5002C14.3096 17.5002 14.6063 17.3772 14.8251 17.1585C15.0439 16.9397 15.1668 16.6429 15.1668 16.3335C15.1668 16.0488 15.2252 15.9065 15.4713 15.7852L15.5728 15.7385C16.4838 15.372 17.2389 14.7001 17.7087 13.8379C18.1785 12.9757 18.3337 11.9769 18.1478 11.0128C17.9619 10.0486 17.4464 9.17922 16.6896 8.55355C15.9329 7.92787 14.9821 7.58493 14.0002 7.5835Z" fill="black" fill-opacity="0.2"/>
</svg>
