<svg width="28" height="28" viewBox="0 0 28 28" fill="none" xmlns="http://www.w3.org/2000/svg">
<path fill-rule="evenodd" clip-rule="evenodd" d="M19.9852 7.73449C20.0917 7.63199 20.2174 7.55149 20.355 7.49759C20.4927 7.4437 20.6396 7.41746 20.7874 7.42039C20.9353 7.42331 21.081 7.45534 21.2165 7.51464C21.3519 7.57394 21.4743 7.65935 21.5767 7.76599L26.8117 13.2215C27.0124 13.4309 27.1245 13.7099 27.1245 14C27.1245 14.2901 27.0124 14.569 26.8117 14.7785L21.5767 20.234C21.4743 20.3406 21.352 20.4259 21.2167 20.4852C21.0814 20.5445 20.9357 20.5766 20.788 20.5796C20.6403 20.5826 20.4934 20.5564 20.3558 20.5027C20.2182 20.4489 20.0925 20.3686 19.9859 20.2662C19.8794 20.1639 19.794 20.0416 19.7347 19.9063C19.6754 19.7709 19.6433 19.6253 19.6403 19.4775C19.6373 19.3298 19.6635 19.183 19.7172 19.0454C19.771 18.9077 19.8513 18.7821 19.9537 18.6755L23.3602 15.125H12.9097C12.6113 15.125 12.3252 15.0065 12.1142 14.7955C11.9032 14.5845 11.7847 14.2984 11.7847 14C11.7847 13.7016 11.9032 13.4155 12.1142 13.2045C12.3252 12.9935 12.6113 12.875 12.9097 12.875H23.3617L19.9537 9.32449C19.7473 9.10921 19.6349 8.8208 19.6411 8.52266C19.6472 8.22451 19.7716 7.94102 19.9867 7.73449" fill="#FBF7F6"/>
<path fill-rule="evenodd" clip-rule="evenodd" d="M0.875 2C0.875 1.70163 0.993526 1.41548 1.2045 1.2045C1.41548 0.993526 1.70163 0.875 2 0.875H16.1825C16.4809 0.875 16.767 0.993526 16.978 1.2045C17.189 1.41548 17.3075 1.70163 17.3075 2V6.5C17.3075 6.79837 17.189 7.08452 16.978 7.2955C16.767 7.50647 16.4809 7.625 16.1825 7.625C15.8841 7.625 15.598 7.50647 15.387 7.2955C15.176 7.08452 15.0575 6.79837 15.0575 6.5V3.125H3.125V24.875H15.056V21.5C15.056 21.2016 15.1745 20.9155 15.3855 20.7045C15.5965 20.4935 15.8826 20.375 16.181 20.375C16.4794 20.375 16.7655 20.4935 16.9765 20.7045C17.1875 20.9155 17.306 21.2016 17.306 21.5V26C17.306 26.2984 17.1875 26.5845 16.9765 26.7955C16.7655 27.0065 16.4794 27.125 16.181 27.125H2C1.70163 27.125 1.41548 27.0065 1.2045 26.7955C0.993526 26.5845 0.875 26.2984 0.875 26V2Z" fill="#FBF7F6"/>
</svg>
